<svg width="403" height="900" viewBox="0 0 403 900" fill="none" xmlns="http://www.w3.org/2000/svg">
<path d="M0 0H286L224 64L246 86.5L286 104.5V143V459H0V0Z" fill="black"/>
<path d="M262 38.4999C259.824 33.925 263.761 28.1818 270.476 22.022C296.327 -1.6902 291.617 -10.8664 258.109 -0.487427C247.57 2.777 237.606 5.63214 231.851 15.0454C211.936 47.6201 233.847 110.898 229.024 136.469C224.122 162.455 212.157 166.53 208.685 168.795C200.359 174.228 240.422 184.634 243.918 193.941C244.544 195.608 242.902 193.77 243.722 195.352C246.122 199.982 253.112 211.197 253.389 205.442C253.921 194.389 254.309 169.76 265.889 160.942C268.861 158.172 285.499 106.5 286 104.5C286.38 102.983 283.801 101.309 280.401 99.7106C271.237 95.4022 260.927 89.7224 263.291 79.8758C263.5 79.0049 263.737 78.0503 264.001 76.9999C264.583 74.684 286.903 57.497 285.001 54.9999C281.063 49.8287 264.296 43.3244 262 38.4999Z" fill="black"/>
<rect y="459" width="286" height="441" fill="#1D1C1C"/>
<g clip-path="url(#clip0)">
<path d="M106.429 841.81L105.209 835.111L106.86 834.534L109.3 837.416L109.372 833.598L111.022 833.021L114.324 838.929L112.673 839.505L110.807 836.047L110.664 840.226L110.018 840.442L107.29 837.344L108.08 841.162L106.429 841.81Z" fill="#878080" fill-opacity="0.24"/>
<path d="M119.707 844.115L121.717 844.403L122.65 847.141L124.516 844.908L126.454 845.196L121.142 851.175L119.42 850.887L121.43 848.582L119.707 844.115Z" fill="#878080" fill-opacity="0.24"/>
<path d="M139.661 849.663L137.938 849.952L136.934 843.324L139.661 842.891C140.379 842.747 141.025 842.891 141.455 843.18C141.886 843.54 142.173 844.044 142.316 844.693C142.46 845.341 142.316 845.989 141.958 846.422C141.599 846.854 141.096 847.142 140.307 847.286L139.302 847.43L139.661 849.663ZM139.159 846.061L139.733 845.989C140.379 845.917 140.666 845.557 140.522 845.053C140.45 844.476 140.092 844.26 139.446 844.404L138.871 844.476L139.159 846.061Z" fill="#878080" fill-opacity="0.24"/>
<path d="M154.016 838.785L151.576 839.217L151.36 840.442L149.494 840.73L150.93 833.67L152.796 833.382L156.384 839.577L154.518 839.866L154.016 838.785ZM153.298 837.488L152.15 835.399L151.719 837.704L153.298 837.488Z" fill="#878080" fill-opacity="0.24"/>
<path d="M163.059 844.188L165.571 843.467C166.145 843.323 166.647 843.323 167.006 843.467C167.365 843.684 167.652 844.044 167.867 844.548C167.939 844.836 168.011 845.124 167.939 845.413C167.867 845.629 167.796 845.917 167.58 846.133C167.867 846.133 168.083 846.133 168.226 846.133C168.441 846.205 168.585 846.277 168.729 846.349C168.872 846.421 169.016 846.565 169.087 846.709C169.159 846.853 169.231 847.069 169.303 847.214C169.374 847.502 169.446 847.79 169.375 848.078C169.375 848.366 169.231 848.582 169.087 848.798C168.944 849.015 168.729 849.231 168.513 849.375C168.298 849.519 167.939 849.663 167.652 849.807L164.996 850.6L163.059 844.188ZM165.499 846.205L165.786 846.133C166.288 845.989 166.504 845.701 166.36 845.268C166.217 844.836 165.929 844.692 165.355 844.908L165.068 844.98L165.499 846.205ZM166.288 848.798L166.647 848.654C167.078 848.51 167.365 848.366 167.508 848.222C167.652 848.078 167.724 847.862 167.652 847.646C167.58 847.43 167.437 847.286 167.221 847.214C167.006 847.142 166.719 847.214 166.288 847.358L165.929 847.43L166.288 848.798Z" fill="#878080" fill-opacity="0.24"/>
<path d="M180.57 838.136L178.489 837.848L178.346 838.929L180.283 839.217L180.068 840.658L178.13 840.37L177.987 841.522L180.068 841.81L179.853 843.251L176.049 842.747L176.982 836.119L180.786 836.623L180.57 838.136Z" fill="#878080" fill-opacity="0.24"/>
<path d="M117.842 865.44L118.775 869.474L120.928 864.719L122.65 864.287L124.229 870.843L122.507 871.275L121.574 867.313L119.421 872.067L117.698 872.5L116.119 865.944L117.842 865.44ZM118.201 863.062C118.344 863.422 118.703 863.566 119.134 863.422C119.564 863.35 119.779 863.062 119.779 862.63L120.856 862.342C120.928 862.846 120.856 863.206 120.569 863.566C120.282 863.927 119.923 864.143 119.349 864.287C118.775 864.431 118.344 864.431 117.913 864.215C117.555 863.999 117.267 863.711 117.124 863.206L118.201 863.062Z" fill="#878080" fill-opacity="0.24"/>
<path d="M137.077 871.131L139.589 871.491L139.948 868.897L141.671 869.186L140.666 875.813L138.944 875.525L139.374 872.788L136.862 872.427L136.431 875.165L134.709 874.877L135.714 868.249L137.436 868.537L137.077 871.131Z" fill="#878080" fill-opacity="0.24"/>
<path d="M148.058 857.732L148.489 861.838L151.288 857.444L153.011 857.3L153.657 864L151.934 864.144L151.503 860.037L148.704 864.432L146.982 864.576L146.336 857.876L148.058 857.732Z" fill="#878080" fill-opacity="0.24"/>
<path d="M164.782 868.754L167.438 866.521L169.519 867.025L166.217 869.546L168.227 873.653L166.002 873.149L164.423 869.763L163.777 872.572L162.055 872.212L163.562 865.656L165.284 866.016L164.782 868.754Z" fill="#878080" fill-opacity="0.24"/>
</g>
<path d="M46.1698 67L49.2418 48.904H53.8978L57.5218 58.552L61.1218 48.904H65.7778L68.8498 67H64.1698L62.6098 56.584L58.3378 67H56.4658L52.4098 56.584L50.8498 67H46.1698ZM70.0056 48.904H75.5976L79.2696 55.72L83.3256 48.904H88.5336L76.7496 67H72.0216L76.4376 59.992L70.0056 48.904ZM94.7914 57.208H96.3514C98.0794 57.208 98.9434 56.456 98.9434 54.952C98.9434 53.448 98.0794 52.696 96.3514 52.696H94.7914V57.208ZM94.7914 67H90.0874V48.904H97.5754C99.6074 48.904 101.159 49.432 102.231 50.488C103.319 51.544 103.863 53.032 103.863 54.952C103.863 56.872 103.319 58.36 102.231 59.416C101.159 60.472 99.6074 61 97.5754 61H94.7914V67ZM115.185 60.28L113.073 54.256L110.961 60.28H115.185ZM116.433 63.856H109.713L108.633 67H103.617L110.505 48.904H115.641L122.529 67H117.513L116.433 63.856ZM129.315 63.352H130.347C131.531 63.352 132.379 63.2 132.891 62.896C133.403 62.592 133.659 62.104 133.659 61.432C133.659 60.76 133.403 60.272 132.891 59.968C132.379 59.664 131.531 59.512 130.347 59.512H129.315V63.352ZM129.315 56.008H130.179C131.651 56.008 132.387 55.424 132.387 54.256C132.387 53.088 131.651 52.504 130.179 52.504H129.315V56.008ZM124.611 48.904H131.619C133.283 48.904 134.547 49.304 135.411 50.104C136.275 50.904 136.707 52.056 136.707 53.56C136.707 54.472 136.539 55.232 136.203 55.84C135.883 56.432 135.387 56.936 134.715 57.352C135.387 57.48 135.955 57.68 136.419 57.952C136.899 58.208 137.283 58.528 137.571 58.912C137.875 59.296 138.091 59.728 138.219 60.208C138.347 60.688 138.411 61.2 138.411 61.744C138.411 62.592 138.259 63.344 137.955 64C137.667 64.656 137.251 65.208 136.707 65.656C136.179 66.104 135.531 66.44 134.763 66.664C133.995 66.888 133.131 67 132.171 67H124.611V48.904ZM151.524 52.888H145.932V55.912H151.212V59.896H145.932V63.016H151.524V67H141.228V48.904H151.524V52.888ZM159.62 48.904V59.992L168.284 48.904H172.988V67H168.284V55.936L159.62 67H154.916V48.904H159.62ZM161.996 43C162.236 44.072 162.94 44.608 164.108 44.608C165.292 44.608 166.004 44.072 166.244 43H169.292C169.228 44.296 168.732 45.32 167.804 46.072C166.924 46.808 165.692 47.176 164.108 47.176C162.572 47.176 161.34 46.808 160.412 46.072C159.516 45.336 159.028 44.312 158.948 43H161.996ZM181.487 55.888H188.279V48.904H192.983V67H188.279V59.536H181.487V67H176.783V48.904H181.487V55.888ZM201.479 48.904V59.992L210.143 48.904H214.847V67H210.143V55.936L201.479 67H196.775V48.904H201.479ZM223.346 56.368L229.082 48.904H234.89L227.714 57.472L235.562 67H229.466L223.346 59.152V67H218.642V48.904H223.346V56.368ZM118.071 92.92C118.327 92.952 118.535 92.968 118.695 92.968C118.887 92.968 119.047 92.968 119.175 92.968C120.359 92.968 121.319 92.616 122.055 91.912C122.791 91.208 123.159 90.296 123.159 89.176C123.159 88.088 122.807 87.208 122.103 86.536C121.431 85.864 120.551 85.528 119.463 85.528C118.311 85.528 117.383 85.912 116.679 86.68C115.975 87.448 115.623 88.44 115.623 89.656H106.935C107.159 87.768 107.623 86.088 108.327 84.616C109.063 83.144 109.991 81.912 111.111 80.92C112.231 79.896 113.543 79.128 115.047 78.616C116.551 78.072 118.215 77.8 120.039 77.8C121.831 77.8 123.447 78.056 124.887 78.568C126.359 79.048 127.607 79.752 128.631 80.68C129.687 81.576 130.487 82.68 131.031 83.992C131.607 85.272 131.895 86.712 131.895 88.312C131.895 90.04 131.559 91.464 130.887 92.584C130.247 93.672 129.319 94.616 128.103 95.416C129.959 95.992 131.399 97.032 132.423 98.536C133.479 100.008 134.007 101.832 134.007 104.008C134.007 105.8 133.655 107.432 132.951 108.904C132.247 110.376 131.255 111.64 129.975 112.696C128.727 113.752 127.223 114.568 125.463 115.144C123.735 115.72 121.831 116.008 119.751 116.008C116.967 116.008 114.455 115.464 112.215 114.376C109.975 113.288 108.183 111.56 106.839 109.192C106.231 108.136 105.815 107.08 105.591 106.024C105.399 104.968 105.303 103.896 105.303 102.808H114.615C114.679 104.504 115.175 105.8 116.103 106.696C117.031 107.56 118.279 107.992 119.847 107.992C121.511 107.992 122.727 107.544 123.495 106.648C124.263 105.752 124.647 104.648 124.647 103.336C124.647 101.768 124.183 100.584 123.255 99.784C122.327 98.984 121.223 98.584 119.943 98.584C119.623 98.584 119.319 98.616 119.031 98.68C118.743 98.712 118.423 98.76 118.071 98.824V92.92ZM138.888 110.392C138.888 109.624 139.032 108.904 139.32 108.232C139.608 107.528 140.008 106.92 140.52 106.408C141.032 105.896 141.624 105.496 142.296 105.208C143 104.92 143.736 104.776 144.504 104.776C145.272 104.776 145.992 104.92 146.664 105.208C147.368 105.496 147.976 105.896 148.488 106.408C149 106.92 149.4 107.528 149.688 108.232C149.976 108.904 150.12 109.624 150.12 110.392C150.12 111.16 149.976 111.896 149.688 112.6C149.4 113.272 149 113.864 148.488 114.376C147.976 114.888 147.368 115.288 146.664 115.576C145.992 115.864 145.272 116.008 144.504 116.008C143.736 116.008 143 115.864 142.296 115.576C141.624 115.288 141.032 114.888 140.52 114.376C140.008 113.864 139.608 113.272 139.32 112.6C139.032 111.896 138.888 111.16 138.888 110.392ZM162.928 96.856C162.928 98.456 163.072 99.912 163.36 101.224C163.648 102.536 164.048 103.672 164.56 104.632C165.104 105.592 165.744 106.344 166.48 106.888C167.216 107.4 168.048 107.656 168.976 107.656C169.872 107.656 170.688 107.4 171.424 106.888C172.192 106.344 172.832 105.592 173.344 104.632C173.856 103.672 174.256 102.536 174.544 101.224C174.832 99.912 174.976 98.456 174.976 96.856C174.976 95.288 174.832 93.848 174.544 92.536C174.256 91.192 173.856 90.056 173.344 89.128C172.832 88.168 172.192 87.432 171.424 86.92C170.688 86.376 169.872 86.104 168.976 86.104C168.048 86.104 167.216 86.376 166.48 86.92C165.744 87.432 165.104 88.168 164.56 89.128C164.048 90.056 163.648 91.192 163.36 92.536C163.072 93.848 162.928 95.288 162.928 96.856ZM153.616 96.856C153.616 93.976 153.984 91.368 154.72 89.032C155.488 86.664 156.544 84.648 157.888 82.984C159.264 81.32 160.88 80.04 162.736 79.144C164.624 78.216 166.704 77.752 168.976 77.752C171.216 77.752 173.28 78.216 175.168 79.144C177.056 80.04 178.672 81.32 180.016 82.984C181.36 84.648 182.4 86.664 183.136 89.032C183.904 91.368 184.288 93.976 184.288 96.856C184.288 99.736 183.904 102.36 183.136 104.728C182.4 107.064 181.36 109.08 180.016 110.776C178.672 112.44 177.056 113.736 175.168 114.664C173.28 115.56 171.216 116.008 168.976 116.008C166.704 116.008 164.624 115.56 162.736 114.664C160.88 113.736 159.264 112.44 157.888 110.776C156.544 109.08 155.488 107.064 154.72 104.728C153.984 102.36 153.616 99.736 153.616 96.856Z" fill="#363434"/>
<path fill-rule="evenodd" clip-rule="evenodd" d="M142.002 211.493L115.337 238.158H115.336L142.001 211.493L142.002 211.493ZM115.335 184.825V238.158V238.159V238.16V288.335H115.332V238.16H115.333L115.333 238.159L115.333 238.158H115.332V184.825L88.6651 211.492L88.6663 211.493L62.0017 238.158H62L62.0008 238.159L62 238.16H62.0017L88.6659 264.824L88.6651 264.825L112.175 288.335H112L142 318.335L172 288.335H171.822L195.332 264.825L221.997 238.16H221.999L221.998 238.159L221.999 238.158H221.997L195.332 211.493L168.667 238.158V238.157L195.332 211.492L168.667 184.827V184.825L168.666 184.826L168.665 184.825V184.827L142.001 211.491L115.335 184.825ZM165.51 288.335L142.001 264.825L118.492 288.335H165.51Z" fill="#858383"/>
<path d="M134.882 238.862L108.216 265.529L81.5488 238.862H134.882Z" fill="black"/>
<path d="M134.882 238.861H81.5488L108.216 212.194L134.882 238.861Z" fill="black"/>
<path d="M168.669 290.502L115.336 290.737L142.198 257.403L168.669 290.502Z" fill="#858383"/>
<path d="M202.527 238.862L175.86 265.529L149.193 238.862H202.527Z" fill="black"/>
<path d="M202.527 238.861H149.193L175.86 212.194L202.527 238.861Z" fill="black"/>
<path d="M130.426 297.158L141.804 308.536L141.601 297.155L130.426 297.158Z" fill="black"/>
<path d="M154.039 297.158L142.661 308.536L142.864 297.155L154.039 297.158Z" fill="black"/>
<path d="M63.5667 139.435L106.868 154.092L116.858 193.572" stroke="#858383" stroke-width="2"/>
<path d="M220.497 139.374L177.225 154.125L167.147 193.572" stroke="#858383" stroke-width="2"/>
<path d="M143.25 242.403C143.25 241.666 142.967 241.032 142.556 240.724V241.645L143.236 242.666C143.244 242.583 143.25 242.495 143.25 242.403V242.403ZM143.944 242.403C143.944 242.795 143.889 243.162 143.794 243.503L144.214 244.133C144.397 243.616 144.5 243.028 144.5 242.403C144.5 240.62 143.669 239.128 142.556 238.749V239.607C143.358 239.966 143.944 241.082 143.944 242.403ZM139.853 238.653L139.5 239.182L140.814 241.153H139.5V243.653H140.611L142 245.737V242.933L143.181 244.703C142.994 244.92 142.786 245.091 142.556 245.195V246.053C142.939 245.924 143.286 245.658 143.581 245.299L144.147 246.153L144.5 245.624L142 241.874L139.853 238.653ZM142 239.07L141.419 239.941L142 240.812V239.07Z" fill="#858383"/>
<defs>
<clipPath id="clip0">
<rect width="61" height="86" fill="white" transform="translate(100 885) rotate(-90)"/>
</clipPath>
</defs>
</svg>
